<svg width="236" height="253" viewBox="0 0 236 253" fill="none" xmlns="http://www.w3.org/2000/svg">
<path fill-rule="evenodd" clip-rule="evenodd" d="M73.4 0H65V162H73.4H170.6V153.6H73.4L73.4 0ZM162.2 122.1H170.6V153.6H162.2V122.1ZM162.2 122.1L105.2 122.1V108.3H96.8V122.1V130.5H162.2V122.1ZM154.1 138H89V91.2H80.6V138V146.4H154.1V138ZM151.1 91.2L89 91.2V99.6H159.5V91.2V59.7H151.1L105.2 59.7V15.3H96.8V59.7V68.1H151.1L151.1 91.2ZM152.9 15.3H105.2V23.7H152.9V15.3Z" fill="#FF8303"/>
<path fill-rule="evenodd" clip-rule="evenodd" d="M80.6 0H89H89H169.4V8.4H89V75.3L143 75.3V83.7H80.6L80.6 75.3V0ZM169.4 8.4V39.6H161L113.6 39.6V31.2H161L161 8.4H169.4Z" fill="#A35709"/>
<path d="M4.0541 240V205H26.4541V211.2H10.6041V218.65H22.9041V224.85H10.6041V233.8H26.9541V240H4.0541ZM52.0721 231.7H37.4221V226.1H52.0721V231.7ZM43.9221 211.25H45.5721L35.4721 240H29.2721L41.7221 205H47.7721L60.2221 240H54.0221L43.9221 211.25ZM74.8721 240.7C73.4554 240.7 71.9971 240.558 70.4971 240.275C68.9971 240.008 67.6054 239.683 66.3221 239.3C65.0387 238.9 64.0221 238.517 63.2721 238.15L64.0221 231.35C65.1887 231.917 66.4054 232.442 67.6721 232.925C68.9387 233.408 70.2387 233.8 71.5721 234.1C72.9054 234.4 74.2554 234.55 75.6221 234.55C77.3221 234.55 78.6887 234.217 79.7221 233.55C80.7554 232.883 81.2721 231.867 81.2721 230.5C81.2721 229.45 80.9804 228.608 80.3971 227.975C79.8137 227.325 78.9221 226.75 77.7221 226.25C76.5221 225.733 74.9887 225.15 73.1221 224.5C71.2554 223.85 69.5804 223.117 68.0971 222.3C66.6137 221.467 65.4387 220.417 64.5721 219.15C63.7054 217.883 63.2721 216.267 63.2721 214.3C63.2721 212.367 63.7471 210.65 64.6971 209.15C65.6471 207.633 67.0637 206.45 68.9471 205.6C70.8471 204.733 73.2054 204.3 76.0221 204.3C78.1554 204.3 80.1887 204.542 82.1221 205.025C84.0554 205.492 85.7054 206 87.0721 206.55L86.4221 213.1C84.4554 212.217 82.6054 211.55 80.8721 211.1C79.1554 210.633 77.4054 210.4 75.6221 210.4C73.7554 210.4 72.3137 210.708 71.2971 211.325C70.2804 211.942 69.7721 212.867 69.7721 214.1C69.7721 215.083 70.0554 215.875 70.6221 216.475C71.1887 217.075 71.9971 217.592 73.0471 218.025C74.0971 218.442 75.3554 218.883 76.8221 219.35C79.3554 220.15 81.4804 221.033 83.1971 222C84.9304 222.95 86.2304 224.108 87.0971 225.475C87.9804 226.825 88.4221 228.5 88.4221 230.5C88.4221 231.5 88.2637 232.592 87.9471 233.775C87.6304 234.942 87.0054 236.05 86.0721 237.1C85.1387 238.15 83.7721 239.017 81.9721 239.7C80.1887 240.367 77.8221 240.7 74.8721 240.7ZM102.276 240V225.85L89.976 205H96.976L106.976 222.75H103.976L113.976 205H120.976L108.676 225.85V240H102.276Z" fill="#FF8303"/>
<path d="M136.632 240V205H149.832C153.216 205 155.724 205.725 157.357 207.175C159.007 208.608 159.832 210.7 159.832 213.45C159.832 215.5 159.366 217.217 158.432 218.6C157.516 219.967 156.132 220.967 154.282 221.6V220.4C157.082 221 159.174 222.1 160.557 223.7C161.941 225.3 162.632 227.417 162.632 230.05C162.632 233.2 161.616 235.65 159.582 237.4C157.549 239.133 154.766 240 151.232 240H136.632ZM143.032 234.3H150.282C152.032 234.3 153.424 233.942 154.457 233.225C155.507 232.508 156.032 231.217 156.032 229.35C156.032 227.45 155.482 226.158 154.382 225.475C153.282 224.792 151.916 224.45 150.282 224.45H143.032V234.3ZM143.032 218.75H148.882C150.432 218.75 151.591 218.433 152.357 217.8C153.141 217.167 153.532 216.15 153.532 214.75C153.532 213.3 153.141 212.267 152.357 211.65C151.591 211.017 150.432 210.7 148.882 210.7H143.032V218.75ZM168.431 240V205H174.831V240H168.431ZM189.842 240V211.2H179.942V205H206.142V211.2H196.242V240H189.842ZM211.228 240V205H233.628V211.2H217.778V218.65H230.078V224.85H217.778V233.8H234.128V240H211.228Z" fill="#A35709"/>
</svg>
