<svg width="333" height="511" viewBox="0 0 333 511" fill="none" xmlns="http://www.w3.org/2000/svg">
<path fill-rule="evenodd" clip-rule="evenodd" d="M26.489 0H0V510.852H26.489H333V484.364V385.031H306.511H126.767V341.514H100.278V385.031V411.52H306.511V484.364H26.489V0ZM280.969 435.17H75.682V314.08H297.997V287.591V188.259H271.509H126.767V74.7358H277.185V48.2472H126.767H100.278V188.259V214.747H271.509V287.591H75.682H49.193V435.17V461.659H280.969V435.17Z" fill="#FF8303"/>
<path fill-rule="evenodd" clip-rule="evenodd" d="M49.1929 0H75.6819V237.452H245.966V263.94H49.1929V237.452V0ZM329.216 0H75.6819V26.4886H302.727V98.3864H153.256V124.875H302.727H329.216V26.4886V0Z" fill="#A35709"/>
</svg>
